<!-- Generated by IcoMoon.io -->
<svg version="1.1" xmlns="http://www.w3.org/2000/svg" width="63" height="32" viewBox="0 0 63 32">
<title>icon-client-one</title>
<path d="M23.345 2.286l3.907 3.909-7.252-0.005v18.965h18.955v-7.251l3.902 3.904v-19.523h-19.512zM38.783 17.445l-11.077-11.083h11.077v11.083zM35.344 22.381h-12.345v-12.755h0.873v11.891h11.472v0.864zM25.482 28.624l-0.472-0.97h-0.389l0.684 1.284v0.748h0.353v-0.748l0.684-1.284h-0.388l-0.472 0.97zM27.221 27.654h0.084l0.767 2.031h-0.368l-0.164-0.476h-0.786l-0.164 0.476h-0.367l0.765-2.031h0.234zM26.848 28.932h0.595l-0.298-0.862-0.297 0.862zM29.303 28.596c-0.015-0.019-0.030-0.038-0.044-0.057-0.052-0.069-0.093-0.135-0.121-0.2s-0.043-0.132-0.043-0.201c0-0.106 0.022-0.197 0.066-0.273s0.106-0.135 0.186-0.176c0.080-0.042 0.173-0.063 0.28-0.063 0.103 0 0.192 0.021 0.266 0.063s0.133 0.095 0.173 0.163c0.041 0.068 0.061 0.142 0.061 0.223 0 0.064-0.012 0.123-0.035 0.176s-0.055 0.101-0.096 0.145-0.088 0.085-0.142 0.124l-0.141 0.103 0.402 0.475c0.013-0.026 0.025-0.053 0.036-0.082 0.034-0.089 0.052-0.188 0.052-0.297h0.29c0 0.099-0.010 0.192-0.029 0.28s-0.049 0.17-0.091 0.246c-0.017 0.031-0.036 0.061-0.058 0.090l0.298 0.351h-0.389l-0.118-0.139c-0.064 0.048-0.133 0.086-0.208 0.114-0.099 0.035-0.204 0.053-0.315 0.053-0.135 0-0.252-0.025-0.35-0.074s-0.175-0.117-0.229-0.204c-0.053-0.086-0.080-0.186-0.080-0.297 0-0.083 0.017-0.155 0.052-0.218s0.081-0.122 0.141-0.176c0.055-0.050 0.118-0.1 0.188-0.15zM29.47 28.8l-0.042 0.031c-0.049 0.040-0.086 0.079-0.11 0.116s-0.039 0.070-0.046 0.1-0.011 0.058-0.011 0.081c0 0.060 0.012 0.113 0.038 0.162s0.064 0.087 0.113 0.116c0.050 0.028 0.111 0.042 0.183 0.042 0.077 0 0.152-0.017 0.225-0.052 0.036-0.018 0.071-0.039 0.104-0.064l-0.452-0.532zM29.55 28.429l0.125-0.084c0.059-0.039 0.1-0.077 0.126-0.114s0.038-0.086 0.038-0.142c0-0.048-0.019-0.093-0.056-0.134s-0.090-0.061-0.158-0.061c-0.047 0-0.087 0.011-0.12 0.034s-0.057 0.050-0.074 0.087c-0.016 0.035-0.024 0.075-0.024 0.119 0 0.042 0.011 0.085 0.032 0.13s0.051 0.090 0.088 0.138c0.008 0.010 0.015 0.020 0.023 0.029zM33.104 29.024h-0.349c-0.010 0.088-0.032 0.163-0.064 0.225s-0.079 0.107-0.141 0.138c-0.061 0.032-0.142 0.047-0.241 0.047-0.082 0-0.152-0.016-0.211-0.049s-0.107-0.079-0.145-0.138c-0.037-0.060-0.065-0.131-0.084-0.213s-0.026-0.177-0.026-0.279v-0.172c0-0.108 0.010-0.204 0.029-0.287s0.051-0.156 0.091-0.213 0.090-0.101 0.149-0.131c0.060-0.030 0.129-0.045 0.209-0.045 0.098 0 0.177 0.017 0.237 0.050s0.106 0.080 0.137 0.142c0.032 0.062 0.052 0.137 0.061 0.225h0.349c-0.014-0.136-0.052-0.256-0.114-0.361s-0.148-0.187-0.26-0.247-0.248-0.089-0.41-0.089c-0.127 0-0.242 0.022-0.345 0.067s-0.188 0.109-0.261 0.194c-0.073 0.084-0.128 0.185-0.167 0.303s-0.057 0.25-0.057 0.396v0.169c0 0.146 0.019 0.278 0.056 0.396s0.093 0.219 0.165 0.303c0.072 0.083 0.158 0.147 0.258 0.192s0.213 0.067 0.339 0.067c0.164 0 0.303-0.030 0.417-0.089s0.203-0.141 0.266-0.244c0.063-0.104 0.1-0.223 0.112-0.356zM35.042 28.726v-0.112c0-0.154-0.020-0.291-0.061-0.412s-0.097-0.226-0.172-0.311c-0.074-0.087-0.163-0.152-0.266-0.197s-0.218-0.068-0.343-0.068c-0.125 0-0.239 0.023-0.342 0.068s-0.191 0.11-0.266 0.197c-0.074 0.086-0.132 0.189-0.173 0.311s-0.061 0.258-0.061 0.412v0.112c0 0.153 0.020 0.291 0.061 0.413s0.1 0.226 0.176 0.311c0.075 0.086 0.164 0.151 0.266 0.197s0.217 0.067 0.342 0.067c0.126 0 0.24-0.022 0.343-0.067s0.192-0.111 0.265-0.197c0.074-0.086 0.132-0.189 0.172-0.311s0.060-0.259 0.060-0.413zM34.691 28.611v0.114c0 0.113-0.011 0.214-0.033 0.301s-0.053 0.161-0.095 0.222c-0.042 0.060-0.093 0.105-0.154 0.135s-0.13 0.045-0.208 0.045c-0.077 0-0.146-0.015-0.206-0.045s-0.112-0.076-0.156-0.135c-0.043-0.060-0.075-0.134-0.098-0.222s-0.033-0.188-0.033-0.301v-0.114c0-0.113 0.011-0.213 0.033-0.3 0.022-0.087 0.054-0.16 0.096-0.219s0.094-0.104 0.155-0.134c0.060-0.031 0.129-0.046 0.206-0.046s0.147 0.015 0.208 0.046c0.061 0.030 0.113 0.074 0.155 0.134s0.075 0.132 0.096 0.219c0.022 0.086 0.033 0.186 0.033 0.3z"></path>
</svg>
